<svg width="283" height="100" viewBox="0 0 283 100" fill="none" xmlns="http://www.w3.org/2000/svg">
<path d="M80.5103 20.2495H122.228V32.2553H94.3187V49.5332H119.508V60.6217H94.3187V84.5949H80.5103V20.2495ZM131.067 84.5949H144.625V37.8137H131.067V84.5949ZM130.942 32.1616H144.75V20.3198H130.942V32.1616ZM191.353 39.3829C188.94 37.9464 186.102 37.2279 182.838 37.2279C178.793 37.2279 175.536 38.3302 173.068 40.5337C171.017 42.3639 169.411 44.7609 168.236 47.7071L168.025 37.8137H155.263V84.5949H168.82V57.6893C168.82 55.7373 169.182 54.0771 169.908 52.7099C170.633 51.3438 171.638 50.2976 172.921 49.5719C174.204 48.8466 175.683 48.4839 177.356 48.4839C179.867 48.4839 181.834 49.2652 183.256 50.8272C184.679 52.3899 185.391 54.5657 185.391 57.3546V84.5949H198.948V54.8441C198.948 51.2455 198.285 48.1284 196.96 45.4919C195.635 42.8559 193.766 40.8199 191.353 39.3829ZM231.282 74.4062C230.403 74.5314 229.713 74.5942 229.211 74.5942C227.788 74.5942 226.763 74.2666 226.135 73.6108C225.508 72.9557 225.194 71.9444 225.194 70.5773V48.0236H233.814V37.8137H225.194V26.6832H211.636V37.8137H205.318V48.0236H211.636V71.7909C211.636 76.1705 212.898 79.5108 215.423 81.8125C217.948 84.1138 221.623 85.2644 226.449 85.2644C227.76 85.2644 229.141 85.1808 230.591 85.0132C232.042 84.846 233.535 84.5393 235.069 84.0927L233.228 74.0503C232.81 74.1622 232.161 74.2806 231.282 74.4062ZM282.362 52.961V84.5949H269.558V78.0672H269.14C268.358 79.6019 267.333 80.9199 266.064 82.0216C264.794 83.124 263.288 83.9746 261.545 84.5741C259.801 85.1736 257.8 85.4735 255.54 85.4735C252.555 85.4735 249.892 84.9573 247.548 83.9255C245.205 82.8937 243.37 81.3454 242.046 79.2808C240.721 77.2166 240.058 74.6504 240.058 71.5814C240.058 68.9597 240.525 66.7695 241.46 65.012C242.395 63.2546 243.678 61.8256 245.31 60.7232C246.942 59.6215 248.81 58.7845 250.917 58.2124C253.023 57.6412 255.248 57.2574 257.591 57.0619C260.269 56.8107 262.424 56.5596 264.056 56.3085C265.688 56.0577 266.887 55.6745 267.655 55.158C268.422 54.6421 268.805 53.8962 268.805 52.9194V52.7099C268.805 51.5109 268.54 50.4925 268.01 49.6555C267.48 48.8186 266.706 48.1771 265.688 47.7305C264.669 47.2849 263.421 47.0611 261.943 47.0611C260.464 47.0611 259.167 47.2849 258.051 47.7305C256.935 48.1771 256.022 48.7766 255.311 49.53C254.599 50.283 254.09 51.1619 253.783 52.1661L241.397 50.3669C242.094 47.6612 243.364 45.3319 245.205 43.3789C247.046 41.4266 249.389 39.9131 252.235 38.839C255.081 37.7652 258.345 37.2279 262.027 37.2279C264.732 37.2279 267.313 37.5489 269.768 38.1904C272.222 38.8325 274.392 39.8012 276.275 41.0984C278.158 42.3956 279.642 44.0275 280.731 45.9942C281.819 47.9608 282.363 50.283 282.363 52.961ZM268.889 63.129C268.498 63.3801 267.961 63.6104 267.278 63.8196C266.594 64.0287 265.835 64.2171 264.998 64.3846C264.161 64.5518 263.331 64.6982 262.508 64.8237C261.685 64.9493 260.924 65.0683 260.228 65.1796C258.749 65.3751 257.466 65.7169 256.378 66.2045C255.29 66.6931 254.453 67.3346 253.867 68.1295C253.282 68.9245 252.989 69.8942 252.989 71.0375C252.989 72.1536 253.274 73.1024 253.846 73.8831C254.418 74.6641 255.192 75.2499 256.169 75.6403C257.145 76.0313 258.261 76.2261 259.516 76.2261C261.329 76.2261 262.94 75.8641 264.349 75.1384C265.757 74.4133 266.866 73.4228 267.676 72.1672C268.485 70.912 268.889 69.4892 268.889 67.8992V63.129Z" fill="white"/>
<path d="M0.637695 60.0001L35.2788 40.0001L51.267 49.2309L16.6259 69.2309V100L0.637695 90.7692V60.0001ZM0.637695 38.4616L16.6259 47.6924V29.2308L51.267 9.23078L35.2788 0L0.637695 20V38.4616Z" fill="#2870E9"/>
</svg>

